<svg viewBox="0 0 61 46" fill="none" height="46" width="61" xmlns="http://www.w3.org/2000/svg"><g clip-path="url(#a)"><path d="M0 0h16v16H0z" fill="#fff"></path><path clip-rule="evenodd" d="M15 1H1v14h14zM0 0v16h16V0z" fill-rule="evenodd" fill="#A3A2A1"></path><path d="M15 0h16v16H15z" fill="#fff"></path><path clip-rule="evenodd" d="M30 1H16v14h14zM15 0v16h16V0z" fill-rule="evenodd" fill="#A3A2A1"></path><path d="M30 0h16v16H30z" fill="#fff"></path><path clip-rule="evenodd" d="M45 1H31v14h14zM30 0v16h16V0z" fill-rule="evenodd" fill="#A3A2A1"></path><path d="M45 0h16v16H45z" fill="#fff"></path><path clip-rule="evenodd" d="M60 1H46v14h14zM45 0v16h16V0z" fill-rule="evenodd" fill="#A3A2A1"></path><path d="M0 15h16v16H0z" fill="#fff"></path><path clip-rule="evenodd" d="M15 16H1v14h14zM0 15v16h16V15z" fill-rule="evenodd" fill="#A3A2A1"></path><path d="M0 30h16v16H0z" fill="#fff"></path><path clip-rule="evenodd" d="M15 31H1v14h14zM0 30v16h16V30z" fill-rule="evenodd" fill="#A3A2A1"></path><path d="M58 0v4H30V0z" fill="#fff"></path><path clip-rule="evenodd" d="M57 3V1H31v2zm1-3H30v4h28z" fill-rule="evenodd" fill="#A3A2A1"></path><path d="M0 43h4V30H0z" fill="#fff"></path><path clip-rule="evenodd" d="M3 42H1V31h2zm-3 1V30h4v13z" fill-rule="evenodd" fill="#A3A2A1"></path><path d="M16 0v4H3V0z" fill="#fff"></path><path clip-rule="evenodd" d="M15 3V1H4v2zm1-3H3v4h13z" fill-rule="evenodd" fill="#A3A2A1"></path><path d="M31 0v4H15V0z" fill="#fff"></path><path clip-rule="evenodd" d="M30 3V1H16v2zm1-3H15v4h16z" fill-rule="evenodd" fill="#A3A2A1"></path><path d="M4 16H0V0h4z" fill="#fff"></path><path clip-rule="evenodd" d="M1 15h2V1H1zm3 1V0H0v16z" fill-rule="evenodd" fill="#A3A2A1"></path><path d="M57 16h4V0h-4z" fill="#fff"></path><path clip-rule="evenodd" d="M60 15h-2V1h2zm-3 1V0h4v16z" fill-rule="evenodd" fill="#A3A2A1"></path><path d="M0 31h4V15H0z" fill="#fff"></path><path clip-rule="evenodd" d="M3 30H1V16h2zm-3 1V15h4v16z" fill-rule="evenodd" fill="#A3A2A1"></path><path d="M0 42v4h16v-4z" fill="#fff"></path><path clip-rule="evenodd" d="M1 45v-2h14v2zm-1-3h16v4H0z" fill-rule="evenodd" fill="#A3A2A1"></path></g><defs><clipPath id="a"><path d="M0 0h61v46H0z" fill="#fff"></path></clipPath></defs></svg>